<?xml version="1.0" standalone="yes"?>
<svg xmlns="http://www.w3.org/2000/svg" width="1920" height="1080">
<path style="fill:#090909; stroke:none;" d="M0 0L0 1080L1920 1080L1920 0L0 0z"/>
<path style="fill:#131313; stroke:none;" d="M1693 212C1693 215.272 1682.25 221 1679 221C1679 224.282 1662.71 234.412 1659 234C1659 237.144 1640.76 248.139 1637 248C1637 251.867 1624.61 257.345 1621 259.5C1605.39 268.822 1583.95 279.221 1571.17 292C1558.7 304.464 1553.31 326.459 1547.17 342.667C1536.26 371.416 1524.11 399.579 1512.67 428L1499.83 460C1498.16 464.152 1494.97 468.647 1496 473L1492 483C1480.04 491.981 1489.34 510.178 1494.25 520C1504.19 539.892 1513.5 560.077 1523.41 580C1527.82 588.852 1536.24 600.054 1537 610L1539 610C1538.99 615.42 1542.85 620.222 1545.25 625C1552.55 639.575 1566.12 656.414 1585 653.144C1598.49 650.807 1611.63 641.687 1624 636.17C1654.83 622.425 1684.77 606.309 1716 593.505C1733.5 586.331 1763.31 577.913 1769 559L1765 554L1765 546L1769 541L1766 539L1770 540L1770 539L1767 536L1771 537L1771 536L1768 532L1771 534L1769 529L1768 529L1767 535L1766 535L1772.99 509L1772.33 499L1790.95 446L1818 370L1830.67 335L1837.2 322.367L1848 325L1848 323C1863.12 324.234 1851.53 304.846 1846.96 300C1824.25 275.899 1801.19 251.834 1779.29 227C1772.62 219.438 1760.61 201.355 1750 200L1749 197L1747 198C1733.18 177.587 1707 208.388 1693 212z"/>
<path style="fill:#1d1d1d; stroke:none;" d="M1757 562C1751.8 559.95 1746.8 556.044 1746.48 550C1745.64 534.351 1758.63 512.548 1764.05 498C1782.9 447.437 1800.64 396.445 1819.81 346C1822.32 339.381 1826.22 318.209 1833.21 315.508C1837.9 313.697 1843.84 320.486 1848.26 316.968C1851.69 314.239 1848.57 308.663 1846.78 306C1838.6 293.887 1827.01 283.65 1817.09 273C1801.01 255.733 1785.37 238.032 1769.04 221.001C1759.8 211.364 1748.67 196.881 1734 196.109C1725.68 195.671 1717.64 202.415 1711 206.692C1695.66 216.568 1680.3 226.407 1665 236.343C1643.76 250.14 1622.27 263.563 1601 277.309C1591.32 283.563 1578.9 289.244 1571.3 298.015C1562.96 307.645 1559.52 322.414 1554.58 334C1542.89 361.387 1531.9 389.272 1521 417C1513.4 436.355 1505.72 455.687 1498 475C1494.47 483.82 1488.79 494.269 1491.45 504C1495.25 517.867 1504.32 532.132 1510.75 545C1522.89 569.273 1534.62 593.731 1546.75 618C1553.8 632.101 1562.4 646.36 1580 647.812C1590.24 648.656 1602.05 640.365 1611 636.167C1634.36 625.214 1657.72 614.235 1681 603.105C1699.28 594.367 1717.8 586.126 1736 577.245C1743.69 573.492 1753.58 570.516 1757 562z"/>
<path style="fill:#2c2c2c; stroke:none;" d="M1735 199.754C1725.35 199.541 1715.63 207.916 1708 213C1691.2 224.189 1673.93 234.659 1657 245.655C1638.46 257.7 1619.6 269.328 1601 281.308C1592.13 287.022 1580.5 292.103 1573.53 300.174C1560.29 315.514 1554.04 343.287 1546.55 362L1511 451C1505.46 464.85 1495.96 481.136 1494.19 496C1492.82 507.47 1502.92 521.035 1507.74 531C1520.35 557.045 1533.93 582.698 1546.03 609C1550.94 619.681 1556.7 636.331 1570.71 636.463C1576.21 636.515 1584.01 629.726 1589 627.248C1604.18 619.713 1619.6 612.38 1635 605.309C1659.78 593.933 1684.61 582.434 1709 570.247C1717.73 565.884 1731.79 562.672 1738.58 555.61C1742.38 551.661 1742.97 544.97 1744.81 540L1758.05 504C1773.8 461.755 1789.53 419.459 1804.69 377C1811.67 357.468 1816.75 332.804 1827.42 315.059C1831.27 308.652 1844.08 316.211 1845 310.837C1846.47 302.299 1827.6 287.784 1822.58 282C1803.88 260.473 1783.92 239.466 1764.04 219.015C1756.32 211.076 1747.13 200.022 1735 199.754z"/>
<path style="fill:#363636; stroke:none;" d="M1709 224L1710 222L1695 233L1696 231L1695 231L1692 235L1693 233L1658 253L1650 258L1649 261L1647 260L1644 264L1642 263L1641 266L1639 265L1637 266L1636 266L1634 268L1633 268L1631 270L1630 273L1627 275L1626 273L1625 273L1624 276L1622 277C1617.08 277.415 1612.13 281.302 1608 284.004C1598.16 290.443 1583.46 296.378 1576.51 306.054C1567.46 318.677 1562.87 335.772 1556.79 350C1543.66 380.741 1531.27 411.74 1519.38 443C1513.33 458.899 1499.46 480.892 1499.77 498C1499.89 504.831 1504.78 512.06 1507.75 518C1513.03 528.551 1517.48 539.451 1522.75 550C1532.41 569.319 1543.15 588.151 1551.72 608C1554.06 613.423 1557.95 625.921 1565.04 626.355C1572.08 626.785 1580.78 621.067 1587 618.231C1601.98 611.398 1616.94 604.518 1632 597.86C1655.82 587.331 1679.34 576.172 1703 565.309C1712.7 560.857 1728.33 556.746 1735.61 548.787C1743.57 540.078 1746.75 522.034 1750.69 511C1760.85 482.58 1771.51 454.284 1782.05 426C1791.92 399.513 1801.31 372.79 1810.33 346C1813.91 335.382 1815.88 318.111 1822.69 309.267C1826.39 304.465 1834.3 307.678 1839 309C1838.26 297.978 1826.11 289.74 1819.29 282C1802.73 263.233 1784.96 245.557 1768.17 227C1761.22 219.322 1752.97 207.148 1742 205.333C1731.43 203.586 1734.24 212.066 1727.96 216.397C1723.12 219.738 1714.62 221.659 1709 224M1729 210L1730 211L1729 210M1714 219L1715 220L1714 219M1711 221L1712 222L1711 221z"/>
<path style="fill:#2c2c2c; stroke:none;" d="M1698 230L1698 231L1709 225L1698 230M1687 237L1687 238L1692 236L1687 237M1730 252C1729.57 248.655 1728.11 246.565 1725.82 244.001C1713.83 230.525 1703.71 238.862 1691 246.284C1663.3 262.459 1637 281.925 1610 299.308C1597.37 307.436 1582.13 314.361 1576.01 329C1560.97 365.007 1547.9 401.904 1533.01 438C1525.75 455.593 1507.46 484.93 1528.1 500.547C1536.06 506.567 1540.36 489.808 1548.12 503.001C1559.64 522.579 1569.42 543.207 1580.58 563C1583.85 568.809 1587.48 581.631 1594.1 584.243C1600.91 586.927 1610.23 579.13 1616 576.247C1635.64 566.429 1655.36 556.788 1675 546.969C1689.53 539.702 1710.75 534.421 1721.66 521.812C1727.23 515.374 1729.5 505.83 1732.42 498C1738.53 481.673 1744.33 465.218 1750.73 449C1761.87 420.761 1772.88 392.431 1783.53 364C1787.32 353.865 1795.89 341.274 1793.33 330C1791.83 323.363 1786.65 318.163 1782.5 313.039C1774.07 302.627 1765.51 292.278 1756.92 282C1749.52 273.145 1740.52 256.661 1730 252M1685 238L1686 239L1685 238M1682 240L1683 241L1682 240M1679 242L1680 243L1679 242M1677 243L1676 245L1677 243M1674 245L1673 247L1674 245M1671 247L1670 249L1671 247z"/>
<path style="fill:#1d1d1d; stroke:none;" d="M1707 247.649C1695.68 251.036 1683.88 261.238 1674 267.657C1655.87 279.431 1637.31 290.566 1619 302.05C1607.77 309.095 1591.89 315.41 1583.64 326.09C1578.06 333.314 1575.73 343.617 1572.4 352C1565.39 369.664 1558.46 387.354 1551.4 405L1528.6 462C1524.56 472.098 1520.25 482.055 1528.11 491.771C1532.99 497.812 1539.27 489.749 1544.9 494.322C1550.41 498.802 1553.03 506.97 1556.42 513C1565.18 528.538 1573.19 544.486 1582 560C1585.47 566.109 1589.96 580.705 1599 579.11C1609.09 577.329 1619.89 569.524 1629 564.969C1648.27 555.334 1667.99 546.454 1687 536.309C1697.13 530.904 1710.74 527.633 1718.61 518.816C1729.73 506.349 1733.93 482.469 1739.81 467C1750.82 438.05 1761.49 408.98 1772.42 380C1777.66 366.118 1786.42 350.853 1788.44 336.089C1789.68 327.058 1780.58 319.205 1775.27 313C1760.61 295.871 1747.03 276.877 1730.99 261.04C1724.93 255.06 1716.51 244.803 1707 247.649z"/>
<path style="fill:#2c2c2c; stroke:none;" d="M1668 249L1669 250L1668 249z"/>
<path style="fill:#131313; stroke:none;" d="M1713 260L1680 284L1676 286L1672 286L1672 289L1669 288L1656 296L1652 299C1644.15 307.163 1631.75 312.729 1622 318.424C1617.64 320.972 1613.03 325.139 1608.17 326.586C1601.13 328.683 1595.84 321.468 1588.1 327.513C1578.28 335.192 1573.56 357.552 1569.32 369C1559.25 396.207 1547.97 423.063 1537.2 450C1533.83 458.429 1524.26 472.874 1528.01 481.995C1531.18 489.72 1538.2 486.32 1543.99 489.858C1550.68 493.948 1554.24 503.339 1557.78 510C1565.61 524.74 1573.74 539.324 1581.69 554C1584.71 559.577 1589.79 574.995 1597.04 575.667C1602.92 576.213 1608.99 571.19 1614 568.784C1627.37 562.358 1640.64 555.725 1654 549.258C1667.69 542.632 1681.39 536.052 1695 529.247C1702.05 525.721 1710.38 522.775 1715.89 516.957C1726.58 505.682 1730.7 482.434 1736.19 468C1747.2 439.052 1757.8 409.948 1768.81 381C1774.06 367.199 1783.64 350.813 1784.81 336C1785.54 326.781 1775.65 318.413 1770.13 312C1754.92 294.317 1737.47 261.684 1713 260z"/>
<path style="fill:#090909; stroke:none;" d="M1707 275L1707 277L1683 290L1683 292L1681 291L1654 310L1626 325L1627 327L1613 333L1612 336C1607.69 336.207 1591.95 335.048 1589.39 337.358C1581.81 344.206 1578.18 362.472 1575 372C1566.98 396.048 1556.52 419.284 1547.58 443C1544.24 451.857 1533.67 466.662 1534.25 475.906C1534.58 481.151 1542.96 482.826 1546.45 485.839C1552.75 491.289 1557.38 500.656 1561.11 508.039C1569.34 524.285 1578.73 539.884 1587.18 556C1589.69 560.774 1593.22 571.405 1600.01 570.412C1609.33 569.049 1619.64 561.428 1628 557.247C1646.6 547.944 1665.39 539.058 1684 529.753C1693.3 525.103 1706.91 521.168 1713.61 512.96C1724.77 499.269 1729.21 474.483 1735.42 458C1744.84 433.033 1753.94 407.938 1763.42 383C1768.7 369.133 1776.23 354.461 1779.47 340C1781.4 331.393 1776.01 326.044 1770.87 319.95C1760.54 307.703 1750.19 295.462 1739.78 283.282C1735.63 278.432 1731.33 270.944 1725 268.761C1718.6 266.55 1712.77 273.546 1707 275z"/>
<path style="fill:#131313; stroke:none;" d="M1705 277L1706 278L1705 277M1613 334L1614 335L1613 334M1777.33 504.667L1777.67 505.333L1777.33 504.667M1776.33 507.667L1776.67 508.333L1776.33 507.667M1775 510L1776 511L1775 510M1773 515L1774 516L1773 515M1772.33 518.667L1772.67 519.333L1772.33 518.667M1771.33 521.667L1771.67 522.333L1771.33 521.667M1770 524L1771 525L1770 524M1772 524L1774 526L1772 524M1769.33 526.667L1769.67 527.333L1769.33 526.667M1772 530L1773 531L1772 530M1772 532L1773 533L1772 532z"/>
<path style="fill:#090909; stroke:none;" d="M1765 536L1766 537L1765 536M1763 542L1764 543L1763 542M1765 542L1768 544L1768 543L1765 542M1764 545L1765 546L1764 545z"/>
<path style="fill:#2c2c2c; stroke:none;" d="M1578 639L1579 640L1578 639z"/>
<path style="fill:#131313; stroke:none;" d="M131 660.653C114.557 665.808 106.195 697.004 99.2477 711C96.3859 716.765 92.447 724.405 95.1489 730.911C97.1907 735.827 102.649 739.021 105.996 743.039C113.125 751.597 119.524 760.987 126.09 769.985C136.579 784.358 147.34 798.542 157.71 813C161.801 818.704 164.938 827.809 170.21 832.28C176.106 837.281 185.709 837.294 193 838.424C207.67 840.7 222.311 843.108 237 845.272C244.9 846.435 254.122 848.666 262 846.196C268.498 844.159 272.672 838.269 274.56 832C278.815 817.874 279.979 802.52 282.414 788C283.796 779.758 286.36 771.173 283.451 763C279.954 753.172 271.379 745.041 265.003 737C252.084 720.707 237.98 694.578 219.999 683.764C206.96 675.922 188.57 673.575 174 669.421C161.916 665.976 143.6 656.702 131 660.653z"/>
<path style="fill:#1d1d1d; stroke:none;" d="M132 664.653C117.517 669.194 108.92 698.452 102.756 711C100.416 715.763 97.115 722.615 99.4074 727.985C101.321 732.469 106.486 735.417 109.576 739.09C117.012 747.931 123.482 757.727 130.37 767C140.995 781.302 151.462 795.728 162.127 810C166.338 815.635 169.654 823.981 175.185 828.348C180.425 832.486 188.684 832.595 195 833.803C209.236 836.527 223.7 838.079 238 840.434C244.945 841.579 253.047 844.376 260 842.196C266.55 840.142 270.126 834.292 271.841 828C275.538 814.435 276.932 799.862 279.247 786C280.426 778.939 282.421 770.99 279.867 764C276.463 754.686 267.888 746.64 261.801 739C248.831 722.723 235.101 697.278 217 686.482C204.666 679.126 186.785 676.767 173 672.86C161.638 669.639 143.776 660.96 132 664.653z"/>
<path style="fill:#2c2c2c; stroke:none;" d="M132.001 668.742C119.843 673.409 111.993 698.957 106.781 710C104.711 714.386 101.806 720.054 103.604 725C106.741 733.629 118 743.39 123.629 751C136.455 768.34 149.188 785.741 162.127 803C167.373 809.999 172.289 820.251 180 824.761C191.338 831.392 210.202 831.086 223 832.87C233.206 834.292 251.174 840.77 260.985 836.388C267.453 833.499 268.457 826.147 269.611 820C272.441 804.928 281.954 778.649 275.633 764C272.047 755.692 263.543 748.711 258 741.576C248.648 729.535 239.092 717.783 229.424 705.999C224.914 700.502 221.171 693.835 215 689.995C203.4 682.776 186.078 680.769 173 677C162.251 673.902 143.006 664.518 132.001 668.742z"/>
<path style="fill:#363636; stroke:none;" d="M118 728C122.886 716.067 127.139 697.394 136 688L137 678C140.325 675.498 132.504 675.57 130.444 677.528C122.387 685.184 118.645 699.265 113.778 709C112.232 712.092 108.95 716.392 109.194 720C109.48 724.217 114.664 726.57 118 728z"/>
<path style="fill:#2c2c2c; stroke:none;" d="M136 676L135 678L136 676z"/>
<path style="fill:#1d1d1d; stroke:none;" d="M150.001 684.667C145.361 686.015 142.489 690.102 140.066 694C134.126 703.552 123.03 723.741 127.479 735C134.504 752.776 152.861 769.965 164.576 785C170.091 792.079 174.876 801.151 183 805.583C191.58 810.262 203.485 810.661 213 812.247C221.131 813.602 234.006 818.423 241.981 815.258C252.588 811.048 251.221 788.223 254.714 779C257.133 772.612 263.25 767.627 262.716 760.286C262.085 751.607 251.434 742.569 246.35 736C238.638 726.038 230.313 710.487 219.907 703.329C209.664 696.283 193.89 694.428 182 691.37C173.235 689.117 158.968 682.063 150.001 684.667z"/>
<path style="fill:#131313; stroke:none;" d="M151.001 690.573C139.194 693.919 126.687 725.27 131.999 736C140.202 752.568 155.516 768.513 167.003 783C172.08 789.404 176.916 798.065 184.015 802.387C191.862 807.164 204.055 807.409 213 808.919C220.645 810.21 232.42 814.346 239.957 811.397C249.713 807.579 248.742 785.542 251.877 777C253.722 771.972 258.525 766.633 257.562 761C256.551 755.079 250.793 749.659 247.155 745.17C237.633 733.422 227.473 713.003 213.91 705.836C204.702 700.97 191.14 699.826 181 697.08C172.309 694.727 160.082 688 151.001 690.573z"/>
<path style="fill:#090909; stroke:none;" d="M149.093 697.028C140.298 701.815 131.464 726.041 135.836 735C143.457 750.619 157.907 765.286 168.576 779C173.81 785.729 178.553 794.467 186 798.995C193.467 803.535 204.535 803.678 213 805.08C219.613 806.176 232.688 810.996 238.856 807.667C245.8 803.92 246.055 785.055 248.012 778C249.478 772.714 253.131 766.59 251.968 761.001C250.824 755.506 245.927 751.089 242.576 746.831C234.129 736.101 224.909 718.366 212.996 711.533C204.424 706.617 191.574 705.453 182 702.849C173.766 700.609 157.255 692.585 149.093 697.028z"/>
<path style="fill:#2c2c2c; stroke:none;" d="M127 703L128 704L127 703M126 705L127 706L126 705M124 710L125 711L124 710z"/>
<path style="fill:#363636; stroke:none;" d="M119 726L120 727L119 726M242 823L176 809C183.558 827.655 220.743 824.117 238 826.17C244.558 826.95 255.064 831.746 260.721 826.566C264.664 822.957 264.587 815.927 265.414 811C267.619 797.851 270.991 784.358 271 771L270 771L269 773C265.299 769.983 260.179 777.814 258.914 781.011C254.67 791.74 255.837 804.779 250.232 814.985C248.18 818.721 244.437 819.906 242 823z"/>
</svg>
